<?xml version="1.0" encoding="UTF-8"?>
<svg xmlns="http://www.w3.org/2000/svg" xmlns:xlink="http://www.w3.org/1999/xlink" width="20px" height="20px" viewBox="0 0 20 20" version="1.1">
<g id="surface1">
<path style=" stroke:none;fill-rule:nonzero;fill:rgb(85.882353%,85.882353%,85.882353%);fill-opacity:1;" d="M 1.4375 0.867188 C 1.355469 0.886719 1.210938 0.976562 1.113281 1.0625 C 0.796875 1.34375 0.816406 0.761719 0.828125 8.417969 L 0.839844 15.214844 L 0.925781 15.375 C 1.03125 15.574219 1.207031 15.726562 1.398438 15.78125 C 1.5 15.8125 3.617188 15.820312 8.421875 15.8125 L 15.300781 15.800781 L 15.453125 15.695312 C 15.535156 15.636719 15.648438 15.523438 15.703125 15.441406 L 15.800781 15.296875 L 15.8125 8.421875 C 15.820312 3.617188 15.8125 1.5 15.78125 1.398438 C 15.726562 1.207031 15.574219 1.03125 15.375 0.925781 L 15.214844 0.839844 L 8.398438 0.832031 C 3.992188 0.828125 1.53125 0.839844 1.4375 0.867188 Z M 14.171875 8.328125 L 14.160156 14.160156 L 8.332031 14.171875 L 2.5 14.179688 L 2.5 2.5 L 14.179688 2.5 Z M 14.171875 8.328125 "/>
<path style=" stroke:none;fill-rule:nonzero;fill:rgb(85.882353%,85.882353%,85.882353%);fill-opacity:1;" d="M 7.5 6.074219 L 7.5 7.5 L 4.648438 7.5 L 4.648438 9.179688 L 7.5 9.179688 L 7.5 12.03125 L 9.179688 12.03125 L 9.179688 9.179688 L 12.03125 9.179688 L 12.03125 7.5 L 9.179688 7.5 L 9.179688 4.648438 L 7.5 4.648438 Z M 7.5 6.074219 "/>
<path style=" stroke:none;fill-rule:nonzero;fill:rgb(85.882353%,85.882353%,85.882353%);fill-opacity:1;" d="M 16.679688 5 L 16.679688 5.820312 L 17.5 5.820312 L 17.5 17.5 L 5.820312 17.5 L 5.820312 16.679688 L 4.179688 16.679688 L 4.179688 17.597656 C 4.179688 18.339844 4.191406 18.546875 4.238281 18.664062 C 4.316406 18.847656 4.433594 18.96875 4.628906 19.074219 L 4.785156 19.160156 L 11.582031 19.171875 C 19.242188 19.183594 18.65625 19.203125 18.941406 18.882812 C 19.050781 18.757812 19.109375 18.644531 19.140625 18.503906 C 19.171875 18.359375 19.179688 16.390625 19.171875 11.542969 L 19.160156 4.785156 L 19.074219 4.628906 C 18.96875 4.433594 18.847656 4.316406 18.664062 4.238281 C 18.546875 4.191406 18.339844 4.179688 17.597656 4.179688 L 16.679688 4.179688 Z M 16.679688 5 "/>
</g>
</svg>
