<?xml version="1.0" encoding="UTF-8"?>
<svg xmlns="http://www.w3.org/2000/svg" xmlns:xlink="http://www.w3.org/1999/xlink" width="20px" height="20px" viewBox="0 0 20 20" version="1.1">
<g id="surface1">
<path style=" stroke:none;fill-rule:nonzero;fill:rgb(85.882353%,85.882353%,85.882353%);fill-opacity:1;" d="M 7.828125 0.234375 C 5.046875 0.84375 2.390625 2.921875 1.125 5.484375 C -0.859375 9.484375 -0.140625 13.921875 2.96875 17.03125 C 6.890625 20.96875 13.109375 20.96875 17.03125 17.03125 C 20.96875 13.109375 20.96875 6.890625 17.03125 2.96875 C 14.609375 0.53125 11.171875 -0.484375 7.828125 0.234375 Z M 12.109375 1.953125 C 13.46875 2.3125 14.78125 3.078125 15.84375 4.15625 C 19.125 7.421875 19.125 12.578125 15.84375 15.84375 C 12.578125 19.125 7.421875 19.125 4.15625 15.84375 C 1.53125 13.234375 0.953125 9.3125 2.703125 6.046875 C 3.6875 4.1875 5.796875 2.515625 7.828125 1.96875 C 8.953125 1.671875 10.96875 1.65625 12.109375 1.953125 Z M 12.109375 1.953125 "/>
<path style=" stroke:none;fill-rule:nonzero;fill:rgb(85.882353%,85.882353%,85.882353%);fill-opacity:1;" d="M 8.96875 7.046875 C 5.5 9.21875 5 9.59375 5 10 C 5 10.140625 5.15625 10.40625 5.359375 10.578125 C 5.90625 11.109375 12.21875 15 12.5 15 C 12.640625 15 12.875 14.875 13.015625 14.71875 C 13.25 14.46875 13.28125 13.90625 13.28125 9.96875 C 13.28125 5.859375 13.265625 5.5 13 5.265625 C 12.84375 5.109375 12.609375 5 12.484375 5 C 12.359375 5 10.78125 5.921875 8.96875 7.046875 Z M 11.6875 11.328125 L 11.640625 12.640625 L 9.578125 11.359375 C 8.4375 10.65625 7.5 10.046875 7.5 10 C 7.5 9.953125 8.4375 9.34375 9.578125 8.640625 L 11.640625 7.359375 L 11.6875 8.671875 C 11.703125 9.40625 11.703125 10.59375 11.6875 11.328125 Z M 11.6875 11.328125 "/>
</g>
</svg>
