<svg xmlns="http://www.w3.org/2000/svg" width="16" height="15" fill="aliceblue" viewBox="0 0 16 15">
    <path fill="aliceblue" d="M.522 0C.234 0 0 .234 0 .522c0 .288.234.522.522.522h2.011l1.795 8.465c.07.318.28.584.543.581h8.699c.276.004.53-.246.53-.521 0-.276-.254-.526-.53-.522H5.295l-.223-1.044h9.194c.233-.002.454-.18.505-.408l1.218-5.22c.068-.302-.195-.633-.505-.635H3.75L3.47.413C3.419.181 3.195 0 2.958 0H.522zm3.447 2.784h2.718l.261 1.565H4.3L3.97 2.784zm3.784 0h3.283l-.26 1.565H8.013l-.261-1.565zm4.349 0h2.724l-.365 1.565h-2.62l.261-1.565zm-7.579 2.61h2.599l.261 1.565H4.855l-.332-1.566zm3.665 0H10.6l-.26 1.565H8.449l-.261-1.566zm3.48 0h2.549l-.364 1.565h-2.447l.261-1.566zm-4.883 5.392c-.955 0-1.74.785-1.74 1.74s.785 1.74 1.74 1.74 1.74-.785 1.74-1.74-.785-1.74-1.74-1.74zm4.871 0c-.954 0-1.74.785-1.74 1.74s.786 1.74 1.74 1.74c.955 0 1.74-.785 1.74-1.74s-.785-1.74-1.74-1.74zM6.785 11.83c.39 0 .696.306.696.696 0 .39-.306.696-.696.696-.39 0-.696-.305-.696-.696 0-.39.305-.696.696-.696zm4.871 0c.39 0 .696.306.696.696 0 .39-.305.696-.696.696-.39 0-.696-.305-.696-.696 0-.39.306-.696.696-.696z"/>
</svg>
